<svg width="16" height="16" viewBox="0 0 16 16" fill="none" xmlns="http://www.w3.org/2000/svg">
    <path
        d="M10 5.33333H10.0067M8.33333 14H4C3.46957 14 2.96086 13.7893 2.58579 13.4142C2.21071 13.0391 2 12.5304 2 12V4C2 3.46957 2.21071 2.96086 2.58579 2.58579C2.96086 2.21071 3.46957 2 4 2H12C12.5304 2 13.0391 2.21071 13.4142 2.58579C13.7893 2.96086 14 3.46957 14 4V8.33333M2 10.6679L5.33333 7.33452C5.952 6.73919 6.71467 6.73919 7.33333 7.33452L9.66667 9.66785M9.33333 9.33456L10 8.6679C10.4527 8.23256 10.982 8.11523 11.476 8.31723M12.6667 14.6667V10.6667M12.6667 10.6667L14.6667 12.6667M12.6667 10.6667L10.6667 12.6667"
        stroke="#999999" stroke-width="1.1" stroke-linecap="round" stroke-linejoin="round" />
</svg>