<svg width="133" height="28" viewBox="0 0 133 28" fill="none" xmlns="http://www.w3.org/2000/svg">
<rect x="22.832" y="0.692383" width="20.6285" height="26.2545" rx="3.60639" fill="url(#paint0_linear_0_1)"/>
<rect x="0.400391" y="0.692383" width="20.6285" height="26.2545" rx="3.60639" fill="url(#paint1_linear_0_1)"/>
<path d="M62.6365 26.624H51.386V0.541441H62.6365C71.2009 0.541441 75.9114 5.32973 75.9114 13.5827C75.9114 21.8357 71.2009 26.624 62.6365 26.624ZM62.2472 7.12048H58.7047V20.045H62.2472C66.8409 20.045 68.0087 19.0718 68.0087 13.5827C68.0087 8.09371 66.8409 7.12048 62.2472 7.12048ZM85.0503 26.624H77.7316V0.541441H85.0503V26.624ZM98.5977 27.0133C91.1233 27.0133 87.3861 23.5097 87.3861 18.0596V17.5535H94.588V17.8649C94.588 20.0061 95.3666 20.4343 98.8702 20.4343C101.634 20.4343 102.218 20.0061 102.218 18.8771C102.218 17.6703 101.829 17.281 100.038 17.0085L94.3544 16.1131C89.06 15.2956 86.88 12.4927 86.88 8.44407C86.88 3.8115 90.4225 0.15215 98.0916 0.15215C105.371 0.15215 108.836 3.8115 108.836 8.67765V9.33945H101.634V8.8723C101.634 7.35406 100.895 6.73119 97.6245 6.73119C94.8605 6.73119 94.1598 7.19834 94.1598 8.17157C94.1598 8.98908 94.6658 9.33945 96.1841 9.61195L101.868 10.6241C107.396 11.5973 109.537 14.4781 109.537 18.5267C109.537 23.0815 106.422 27.0133 98.5977 27.0133ZM132.361 26.624H111.3V0.541441H132.361V7.12048H118.619V10.2737H131.777V16.8139H118.619V20.045H132.361V26.624Z" fill="url(#paint2_linear_0_1)"/>
<defs>
<linearGradient id="paint0_linear_0_1" x1="33.1463" y1="0.692383" x2="33.1456" y2="26.9469" gradientUnits="userSpaceOnUse">
<stop stop-color="#D4CDC9"/>
<stop offset="1" stop-color="#9B928E"/>
</linearGradient>
<linearGradient id="paint1_linear_0_1" x1="10.7147" y1="0.692383" x2="10.7147" y2="26.9469" gradientUnits="userSpaceOnUse">
<stop stop-color="#777777"/>
<stop offset="1" stop-color="#2C2C2C"/>
</linearGradient>
<linearGradient id="paint2_linear_0_1" x1="131.275" y1="14.505" x2="52.5118" y2="14.505" gradientUnits="userSpaceOnUse">
<stop stop-color="#524C4A"/>
<stop offset="1" stop-color="#222222"/>
</linearGradient>
</defs>
</svg>
